<svg xmlns="http://www.w3.org/2000/svg" width="1200" height="900" viewBox="0 0 1200 900">
  <rect width="1200" height="900" fill="#151515"/>
  <circle cx="600" cy="450" r="105" fill="#ef3326"/>
  <text x="600" y="465" fill="white" text-anchor="middle" font-family="Arial, sans-serif" font-size="48" font-weight="700">ArtHub</text>
  <g fill="none" stroke="rgba(255,255,255,.45)" stroke-width="3">
    <path d="M600 345 C600 250 600 200 600 145"/>
    <path d="M690 390 C810 320 885 270 980 220"/>
    <path d="M705 470 C830 500 915 530 1020 590"/>
    <path d="M650 550 C720 655 760 710 815 790"/>
    <path d="M535 550 C455 650 405 710 350 790"/>
    <path d="M495 470 C360 500 275 525 165 580"/>
  </g>
  <g font-family="Arial, sans-serif" font-weight="700" font-size="32" text-anchor="middle">
    <rect x="450" y="55" rx="42" width="300" height="90" fill="#fffdf8"/>
    <text x="600" y="112" fill="#151515">СОЗДАВАТЬ</text>

    <rect x="860" y="150" rx="42" width="280" height="90" fill="#fffdf8"/>
    <text x="1000" y="207" fill="#151515">УЧИТЬСЯ</text>

    <rect x="900" y="555" rx="42" width="280" height="90" fill="#fffdf8"/>
    <text x="1040" y="612" fill="#151515">ПРОВОДИТЬ</text>

    <rect x="680" y="755" rx="42" width="300" height="90" fill="#fffdf8"/>
    <text x="830" y="812" fill="#151515">ЗАКАЗЫВАТЬ</text>

    <rect x="180" y="755" rx="42" width="360" height="90" fill="#fffdf8"/>
    <text x="360" y="812" fill="#151515">КОЛЛЕКЦИОНИРОВАТЬ</text>

    <rect x="20" y="545" rx="42" width="300" height="90" fill="#fffdf8"/>
    <text x="170" y="602" fill="#151515">ПОДДЕРЖИВАТЬ</text>
  </g>
  <text x="600" y="875" fill="rgba(255,255,255,.55)" text-anchor="middle" font-family="Arial, sans-serif" font-size="22">
    Замените этот файл собственной нарисованной картой возможностей
  </text>
</svg>